<svg width="24" height="24" viewBox="0 0 24 24" fill="none" xmlns="http://www.w3.org/2000/svg">
<g clip-path="url(#clip0_1596_4830)">
<path d="M22.5707 9.8592L3.20688 1.82436C2.39111 1.48583 1.4695 1.63475 0.80177 2.21281C0.134035 2.79097 -0.145246 3.68178 0.0730042 4.53758L1.79655 11.2966H10.2353C10.6236 11.2966 10.9384 11.6114 10.9384 11.9997C10.9384 12.3881 10.6236 12.7029 10.2353 12.7029H1.79655L0.0730042 19.4619C-0.145246 20.3177 0.133988 21.2085 0.80177 21.7866C1.47086 22.3659 2.39257 22.513 3.20693 22.1751L22.5707 14.1403C23.4523 13.7745 24 12.9543 24 11.9997C24 11.0452 23.4523 10.225 22.5707 9.8592Z" fill="#2395CA"/>
</g>
<defs>
<clipPath id="clip0_1596_4830">
<rect width="24" height="24" fill="white"/>
</clipPath>
</defs>
</svg>
