<svg width="24" height="24" viewBox="0 0 24 24" fill="none" xmlns="http://www.w3.org/2000/svg">
<g clip-path="url(#clip0_1598_4899)">
<path d="M22.405 4.04465C21.3748 3.01442 20.0051 2.44709 18.5482 2.44709C17.0913 2.44709 15.7216 3.01442 14.6914 4.04465L6.09334 12.6426C4.81738 13.9186 4.81738 15.9948 6.09342 17.2709C7.36945 18.5468 9.44568 18.5468 10.7216 17.2707L16.3833 11.6091C16.8093 11.183 16.8093 10.4924 16.3833 10.0664C15.9573 9.64033 15.2666 9.64033 14.8406 10.0664L9.17892 15.728C8.75363 16.1534 8.0615 16.1534 7.63613 15.7281C7.21076 15.3027 7.21076 14.6106 7.63606 14.1853L16.2341 5.58744C16.8523 4.96934 17.6741 4.62892 18.5482 4.62892C19.4224 4.62892 20.2442 4.96934 20.8623 5.58744C22.1382 6.86347 22.1383 8.93962 20.8624 10.2157L11.493 19.5848C9.36626 21.7115 5.90593 21.7114 3.77938 19.5848C2.74915 18.5547 2.18175 17.185 2.18175 15.7281C2.18175 14.2712 2.74915 12.9014 3.77938 11.8712L13.1485 2.50186C13.5746 2.07583 13.5746 1.38516 13.1485 0.959139C12.7226 0.533188 12.0319 0.533115 11.6058 0.959139L2.23666 10.3285C0.794303 11.7707 0 13.6884 0 15.7281C0 17.7678 0.794303 19.6854 2.23666 21.1276C3.72549 22.6164 5.68048 23.3608 7.63613 23.3606C9.59135 23.3604 11.5472 22.6161 13.0358 21.1276L22.4051 11.7583C24.5317 9.6316 24.5316 6.17134 22.405 4.04465Z" fill="#7A7A7A"/>
</g>
<defs>
<clipPath id="clip0_1598_4899">
<rect width="24" height="24" fill="white"/>
</clipPath>
</defs>
</svg>
