<svg width="140" height="140" viewBox="0 0 140 140" fill="none" xmlns="http://www.w3.org/2000/svg">
<path d="M43.75 0H0V43.75H43.75V0ZM35 35H8.75V8.75H35V35Z" fill="black"/>
<path d="M26.25 17.5H17.5V26.25H26.25V17.5Z" fill="black"/>
<path d="M96.25 0V43.75H140V0H96.25ZM131.25 35H105V8.75H131.25V35Z" fill="black"/>
<path d="M122.5 17.5H113.75V26.25H122.5V17.5Z" fill="black"/>
<path d="M0 140H43.75V96.25H0V140ZM8.75 105H35V131.25H8.75V105Z" fill="black"/>
<path d="M26.25 113.75H17.5V122.5H26.25V113.75Z" fill="black"/>
<path d="M87.5 0H70V8.75H87.5V0Z" fill="black"/>
<path d="M70 35H78.75V26.25H87.5V17.5H61.25V8.75H52.5V17.5V21.875V26.25H70V35Z" fill="black"/>
<path d="M61.25 35H52.5V43.75H61.25V35Z" fill="black"/>
<path d="M87.5 43.75H78.75V52.5H52.5V61.25H87.5V43.75Z" fill="black"/>
<path d="M8.75 78.75H17.5V70H8.75V52.5H0V87.5H8.75V78.75Z" fill="black"/>
<path d="M26.25 52.5H17.5V61.25H26.25V52.5Z" fill="black"/>
<path d="M52.5 87.5H70V78.75H61.25V70H43.75V52.5H35V70H26.25V87.5H35V78.75H39.375H43.75H52.5V87.5Z" fill="black"/>
<path d="M87.5 70H78.75V87.5H87.5V70Z" fill="black"/>
<path d="M78.75 96.25H52.5V105H70V131.25H52.5V140H78.75V131.25H96.25V122.5H78.75V96.25Z" fill="black"/>
<path d="M61.25 113.75H52.5V122.5H61.25V113.75Z" fill="black"/>
<path d="M96.25 96.25H87.5V113.75H96.25V96.25Z" fill="black"/>
<path d="M131.25 113.75H105V140H113.75V122.5H131.25V113.75Z" fill="black"/>
<path d="M140 131.25H122.5V140H140V131.25Z" fill="black"/>
<path d="M140 96.25H131.25V105H140V96.25Z" fill="black"/>
<path d="M105 105H113.75V78.75H96.25V87.5H105V105Z" fill="black"/>
<path d="M122.5 61.25H113.75V52.5H105V61.25H96.25V70H131.25V61.25H140V52.5H122.5V61.25Z" fill="black"/>
<path d="M140 78.75H122.5V87.5H140V78.75Z" fill="black"/>
</svg>
