<svg width="52" height="21" viewBox="0 0 52 21" fill="none" xmlns="http://www.w3.org/2000/svg">
<path d="M24.4426 9.71605V15.8637H22.5336V0.68263H27.5945C28.8771 0.68263 29.9708 1.11961 30.8657 1.99348C31.7805 2.86734 32.2378 3.93427 32.2378 5.19425C32.2378 6.48476 31.7805 7.55168 30.8657 8.41537C29.9807 9.27906 28.8871 9.70587 27.5945 9.70587H24.4426V9.71605ZM24.4426 2.55232V7.84636H27.6343C28.3899 7.84636 29.0263 7.5822 29.5234 7.06394C30.0305 6.54568 30.289 5.91574 30.289 5.20442C30.289 4.50328 30.0305 3.88341 29.5234 3.36525C29.0262 2.82665 28.3999 2.56249 27.6343 2.56249H24.4426V2.55232Z" fill="#383E41"/>
<path d="M37.0562 5.5587C38.4681 5.5587 39.5817 5.94482 40.397 6.71707C41.2123 7.48932 41.6199 8.54607 41.6199 9.88743V16.2891H39.8004V14.8462H39.7209C38.9354 16.0351 37.8814 16.6245 36.569 16.6245C35.4455 16.6245 34.5108 16.2891 33.7552 15.6083C32.9995 14.9275 32.6217 14.084 32.6217 13.068C32.6217 11.9909 33.0194 11.1373 33.8149 10.5073C34.6103 9.86719 35.6742 9.55217 36.9966 9.55217C38.13 9.55217 39.0647 9.76557 39.7905 10.1923V9.74523C39.7905 9.06443 39.532 8.49542 39.005 8.01785C38.478 7.54028 37.8616 7.30653 37.1556 7.30653C36.0918 7.30653 35.2466 7.76375 34.6301 8.68848L32.9498 7.61138C33.8745 6.2395 35.2466 5.5587 37.0562 5.5587ZM34.5904 13.0984C34.5904 13.6065 34.7992 14.0333 35.2267 14.3685C35.6444 14.7039 36.1415 14.8766 36.7083 14.8766C37.5137 14.8766 38.2295 14.5718 38.8559 13.9621C39.4824 13.3524 39.8005 12.641 39.8005 11.818C39.2039 11.3405 38.3787 11.0966 37.3148 11.0966C36.5392 11.0966 35.893 11.2896 35.3759 11.6656C34.8489 12.0619 34.5904 12.5395 34.5904 13.0984Z" fill="#383E41"/>
<path d="M52.0003 5.89367L45.6369 20.8512H43.6682L46.0345 15.6181L41.8387 5.89367H43.9167L46.9393 13.3521H46.9792L49.9222 5.89367H52.0003Z" fill="#383E41"/>
<path d="M16.5177 7.07142H8.51578V10.4247L13.1243 10.4257C12.9374 11.5414 12.3358 12.4925 11.4141 13.1266V13.1272C11.4144 13.127 11.4148 13.1268 11.4151 13.1266L11.3322 15.1308L14.1584 15.3011C14.158 15.3015 14.1576 15.3019 14.1573 15.3022C15.7591 13.7872 16.6769 11.5475 16.6769 8.90156C16.6768 8.26539 16.6211 7.65673 16.5177 7.07142Z" fill="#0085F7"/>
<path d="M11.4153 13.1262C11.415 13.1264 11.4146 13.1266 11.4143 13.1268C10.6509 13.6527 9.66782 13.9604 8.51801 13.9604C6.29578 13.9604 4.41065 12.4301 3.73555 10.3673H3.73524C3.73534 10.3677 3.73545 10.3681 3.73555 10.3684L1.3761 9.98652L0.906267 12.6116C2.30836 15.4544 5.18954 17.4051 8.51811 17.4051C10.8182 17.4051 12.7507 16.6322 14.1576 15.3016C14.158 15.3013 14.1584 15.301 14.1587 15.3006L11.4153 13.1262Z" fill="#00A94B"/>
<path d="M3.46903 8.70312C3.46903 8.12394 3.56349 7.56405 3.73554 7.0377L2.99879 4.79404H0.905751C0.326123 5.96974 0 7.29678 0 8.70312C0 10.1095 0.327139 11.4365 0.905751 12.6122L0.906158 12.6119L3.73554 10.3685C3.73544 10.3682 3.73534 10.3679 3.73523 10.3675C3.56339 9.84156 3.46903 9.28199 3.46903 8.70312Z" fill="#FFBB00"/>
<path d="M8.51754 0C5.18968 0 2.30729 1.95096 0.90529 4.79416L3.73498 7.03782C4.41008 4.97507 6.29521 3.4448 8.51744 3.4448C9.77318 3.4448 10.8978 3.88687 11.7857 4.75056L14.2167 2.26816C12.7403 0.862654 10.8153 0 8.51754 0Z" fill="#FF4031"/>
</svg>
