<svg width="32" height="32" viewBox="0 0 32 32" fill="none" xmlns="http://www.w3.org/2000/svg">
<g clip-path="url(#clip0_0_815)">
<path fill-rule="evenodd" clip-rule="evenodd" d="M0 0H32V32H0V0Z" fill="white"/>
<path fill-rule="evenodd" clip-rule="evenodd" d="M0.491211 0.314453V31.664H31.5499V0.314453H0.491211ZM2.09788 16.8523V13.5895C2.09788 12.994 2.82071 12.2171 3.54369 12.2171H10.6925V13.6154H3.9051C3.69858 13.6154 3.51779 13.8744 3.51779 14.0298V16.2567C3.51779 16.7228 3.64679 16.7745 3.98246 16.7745H8.57555C9.32426 16.7745 9.27263 16.3344 9.27263 15.8941H6.76849V14.4958H10.6927V16.7745C10.6927 17.8363 9.60848 18.1728 9.19527 18.1728H3.54369C2.66598 18.173 2.09788 17.396 2.09788 16.8523ZM11.6951 19.9712H10.3333V22.0945H9.76519V19.9712H8.40339V19.4015H11.6949L11.6951 19.9712ZM15.6572 22.0945L14.7277 21.1106H13.2023V22.0945H12.6344V19.4015H15.4377C15.9024 19.4015 16.238 19.6863 16.251 20.2171C16.2639 20.748 15.9412 21.1106 15.4764 21.1106C15.4764 21.0976 16.4059 22.0945 16.4059 22.0945H15.6572ZM15.7911 18.173L13.2505 13.6674V18.173H11.8563V12.2173H14.1025L16.4109 16.4381L18.8439 12.2173H21.0124V18.173H19.6182V13.7969L17.056 18.173H15.7911ZM21.0536 21.175C21.0536 22.0296 20.6664 22.1721 20.1629 22.1721H18.0013C17.4977 22.1721 17.1106 22.0298 17.1106 21.175V19.4013H17.6784V21.2915C17.6784 21.46 17.7947 21.6023 18.0658 21.6023H20.0985C20.3696 21.6023 20.4857 21.46 20.4857 21.2915V19.4013H21.0537L21.0536 21.175ZM25.3141 19.9711H22.6852C22.5175 19.9711 22.3755 20.0874 22.3755 20.3594V21.2138C22.3755 21.4858 22.5175 21.6023 22.6852 21.6023H25.3141V22.1721H22.8015C21.9494 22.1721 21.8074 21.7836 21.8074 21.2786V20.2946C21.8074 19.7898 21.9494 19.4013 22.8015 19.4013H25.3141V19.9711ZM28.8834 22.1721L27.5942 20.8013L26.6655 21.4285V22.1721H26.0974V19.4015H26.6655V20.7922L28.7134 19.4015H29.5548L28.0572 20.502L29.6449 22.1722H28.8834V22.1721ZM29.7825 13.6156H23.8537C23.6472 13.6156 23.4662 13.8746 23.4662 14.0299V16.2568C23.4662 16.723 23.5952 16.7746 23.9313 16.7746H29.7825V18.173H23.4921C22.6144 18.173 22.0463 17.396 22.0463 16.8523V13.5895C22.0463 12.994 22.7693 12.2171 23.4921 12.2171H29.7825V13.6156Z" fill="black"/>
<path fill-rule="evenodd" clip-rule="evenodd" d="M15.6568 20.2195C15.6568 20.0512 15.5019 19.9866 15.36 19.9736H13.2021V20.5434H15.3857C15.5406 20.5432 15.6568 20.4137 15.6568 20.2195Z" fill="black"/>
</g>
<defs>
<clipPath id="clip0_0_815">
<rect width="32" height="32" fill="white"/>
</clipPath>
</defs>
</svg>
