<svg width="51" height="35" viewBox="0 0 51 35" fill="none" xmlns="http://www.w3.org/2000/svg">
<g clip-path="url(#clip0_1586_8004)">
<path d="M39.4243 14.3838H36.6719C36.51 14.3838 36.3481 14.5457 36.2671 14.7076L35.1338 21.8314C35.1338 21.9933 35.2147 22.0743 35.3766 22.0743H36.8338C36.9957 22.0743 37.0766 21.9933 37.0766 21.8314L37.4005 19.8076C37.4005 19.6457 37.5624 19.4838 37.8052 19.4838H38.6957C40.5576 19.4838 41.61 18.5933 41.8528 16.8124C42.0147 16.0838 41.8528 15.4362 41.529 15.0314C41.0433 14.6266 40.3147 14.3838 39.4243 14.3838ZM39.7481 17.0552C39.5862 18.0266 38.8576 18.0266 38.129 18.0266H37.6433L37.9671 16.1647C37.9671 16.0838 38.0481 16.0028 38.21 16.0028H38.3719C38.8576 16.0028 39.3433 16.0028 39.5862 16.3266C39.7481 16.4076 39.7481 16.6505 39.7481 17.0552Z" fill="#139AD6"/>
<path d="M19.5903 14.3838H16.8379C16.676 14.3838 16.5141 14.5457 16.4331 14.7076L15.2998 21.8314C15.2998 21.9933 15.3808 22.0743 15.5427 22.0743H16.8379C16.9998 22.0743 17.1617 21.9124 17.2427 21.7505L17.5665 19.8076C17.5665 19.6457 17.7284 19.4838 17.9712 19.4838H18.8617C20.7236 19.4838 21.776 18.5933 22.0189 16.8124C22.1808 16.0838 22.0189 15.4362 21.695 15.0314C21.2093 14.6266 20.5617 14.3838 19.5903 14.3838ZM19.9141 17.0552C19.7522 18.0266 19.0236 18.0266 18.295 18.0266H17.8903L18.2141 16.1647C18.2141 16.0838 18.295 16.0028 18.4569 16.0028H18.6189C19.1046 16.0028 19.5903 16.0028 19.8331 16.3266C19.9141 16.4076 19.995 16.6505 19.9141 17.0552Z" fill="#263B80"/>
<path d="M27.9286 16.9744H26.6333C26.5524 16.9744 26.3905 17.0554 26.3905 17.1363L26.3095 17.5411L26.2286 17.3792C25.9048 16.9744 25.3381 16.8125 24.6905 16.8125C23.2333 16.8125 21.9381 17.9458 21.6952 19.4839C21.5333 20.2935 21.7762 21.022 22.181 21.5077C22.5857 21.9935 23.1524 22.1554 23.881 22.1554C25.0952 22.1554 25.7429 21.4268 25.7429 21.4268L25.6619 21.8315C25.6619 21.9935 25.7429 22.0744 25.9048 22.0744H27.1191C27.281 22.0744 27.4429 21.9125 27.5238 21.7506L28.2524 17.2173C28.1714 17.1363 28.0095 16.9744 27.9286 16.9744ZM26.0667 19.5649C25.9048 20.2935 25.3381 20.8601 24.5286 20.8601C24.1238 20.8601 23.8 20.6982 23.6381 20.5363C23.4762 20.2935 23.3952 19.9696 23.3952 19.5649C23.4762 18.8363 24.1238 18.2696 24.8524 18.2696C25.2572 18.2696 25.5 18.4315 25.7429 18.5935C25.9857 18.8363 26.0667 19.2411 26.0667 19.5649Z" fill="#263B80"/>
<path d="M47.6805 16.9734H46.3853C46.3043 16.9734 46.1424 17.0544 46.1424 17.1353L46.0615 17.5401L45.9805 17.3782C45.6567 16.9734 45.0901 16.8115 44.4424 16.8115C42.9853 16.8115 41.6901 17.9449 41.4472 19.483C41.2853 20.2925 41.5281 21.021 41.9329 21.5068C42.3377 21.9925 42.9043 22.1544 43.6329 22.1544C44.8472 22.1544 45.4948 21.4258 45.4948 21.4258L45.4139 21.8306C45.4139 21.9925 45.4948 22.0734 45.6567 22.0734H46.871C47.0329 22.0734 47.1948 21.9115 47.2758 21.7496L48.0043 17.2163C47.9234 17.1353 47.8424 16.9734 47.6805 16.9734ZM45.8186 19.5639C45.6567 20.2925 45.0901 20.8591 44.2805 20.8591C43.8758 20.8591 43.552 20.6972 43.3901 20.5353C43.2281 20.2925 43.1472 19.9687 43.1472 19.5639C43.2281 18.8353 43.8758 18.2687 44.6043 18.2687C45.0091 18.2687 45.252 18.4306 45.4948 18.5925C45.8186 18.8353 45.8996 19.2401 45.8186 19.5639Z" fill="#139AD6"/>
<path d="M34.9716 16.9736H33.5954C33.4335 16.9736 33.3526 17.0546 33.2716 17.1355L31.4907 19.8879L30.6811 17.2974C30.6002 17.1355 30.5192 17.0546 30.2764 17.0546H28.9811C28.8192 17.0546 28.7383 17.2165 28.7383 17.3784L30.1954 21.6689L28.8192 23.6117C28.7383 23.7736 28.8192 24.0165 28.9811 24.0165H30.2764C30.4383 24.0165 30.5192 23.9355 30.6002 23.8546L35.0526 17.4593C35.2954 17.2165 35.1335 16.9736 34.9716 16.9736Z" fill="#263B80"/>
<path d="M49.2193 14.6263L48.0859 21.912C48.0859 22.0739 48.1669 22.1549 48.3288 22.1549H49.4621C49.624 22.1549 49.7859 21.9929 49.8669 21.831L51.0002 14.7072C51.0002 14.5453 50.9193 14.4644 50.7574 14.4644H49.4621C49.3812 14.3834 49.3002 14.4644 49.2193 14.6263Z" fill="#139AD6"/>
<path d="M9.30952 11.9548C8.74286 11.3072 7.69048 10.9834 6.23333 10.9834H2.18571C1.94286 10.9834 1.7 11.2263 1.61905 11.4691L0 22.0739C0 22.3167 0.161905 22.4786 0.32381 22.4786H2.83333L3.48095 18.512V18.6739C3.56191 18.431 3.80476 18.1882 4.04762 18.1882H5.26191C7.60952 18.1882 9.39048 17.2167 9.95714 14.5453C9.95714 14.4644 9.95714 14.3834 9.95714 14.3024C9.87619 14.3024 9.87619 14.3024 9.95714 14.3024C10.0381 13.2501 9.87619 12.6024 9.30952 11.9548Z" fill="#263B80"/>
<path d="M9.87654 14.3027C9.87654 14.3837 9.87654 14.4646 9.87654 14.5456C9.30987 17.298 7.52892 18.1884 5.1813 18.1884H3.96701C3.72415 18.1884 3.4813 18.4313 3.40034 18.6742L2.59082 23.6123C2.59082 23.7742 2.67177 23.9361 2.91463 23.9361H5.01939C5.26225 23.9361 5.50511 23.7742 5.50511 23.5313V23.4504L5.90987 20.9408V20.7789C5.90987 20.5361 6.15273 20.3742 6.39558 20.3742H6.71939C8.7432 20.3742 10.3622 19.5646 10.767 17.1361C10.9289 16.1646 10.848 15.2742 10.3622 14.7075C10.2813 14.5456 10.1194 14.3837 9.87654 14.3027Z" fill="#139AD6"/>
<path d="M9.30904 14.0593C9.22809 14.0593 9.14714 13.9783 9.06618 13.9783C8.98523 13.9783 8.90428 13.9783 8.82333 13.8974C8.49952 13.8164 8.17571 13.8164 7.77095 13.8164H4.6138C4.53285 13.8164 4.4519 13.8164 4.37094 13.8974C4.20904 13.9783 4.12809 14.1402 4.12809 14.3021L3.48047 18.5116V18.6735C3.56142 18.4307 3.80428 18.1878 4.04714 18.1878H5.26142C7.60904 18.1878 9.38999 17.2164 9.95666 14.545C9.95666 14.464 9.95666 14.3831 10.0376 14.3021C9.87571 14.2212 9.79475 14.1402 9.63285 14.1402C9.38999 14.0593 9.38999 14.0593 9.30904 14.0593Z" fill="#232C65"/>
</g>
<defs>
<clipPath id="clip0_1586_8004">
<rect width="51" height="35" fill="white"/>
</clipPath>
</defs>
</svg>
