<svg width="108" height="103" viewBox="0 0 108 103" fill="none" xmlns="http://www.w3.org/2000/svg">
<path d="M108 51.3735L95.7737 37.7993L97.688 19.6268L79.8101 15.8422L70.6907 0L53.9999 7.45963L51.7471 51.3735L53.9999 95.2871L70.6909 102.747L79.8101 86.9048L97.688 83.1199L95.7737 64.9474L108 51.3735Z" fill="#0ED678"/>
<path d="M37.3089 0L28.1897 15.8422L10.3118 19.627L12.2261 37.7993L0 51.3735L12.2261 64.9474L10.3118 83.1199L28.1897 86.9048L37.3091 102.747L54.0001 95.2871V7.45963L37.3089 0Z" fill="#04EB84"/>
<path d="M76.6389 39.5491L71.9121 35.3301L54.0009 55.397L51.748 60.384L54.0009 64.9118L76.6389 39.5491Z" fill="white"/>
<path d="M35.1771 46.6016L30.6973 51.0816L49.5327 69.9173L54.0006 64.9118V55.397L49.2713 60.6955L35.1771 46.6016Z" fill="white"/>
</svg>
