<svg width="176" height="232" viewBox="0 0 176 232" fill="none" xmlns="http://www.w3.org/2000/svg">
<path d="M36.1797 224H31.3135V200.749H46.5405V204.906H36.1797V210.964H45.6382V214.944H36.1797V224ZM50.5688 224V206.227H55.1128V209.063H55.4028C55.6392 208.161 56.1763 207.414 57.0142 206.823C57.8628 206.232 58.8457 205.937 59.9629 205.937C60.7686 205.937 61.3809 206.012 61.7998 206.163V210.433C61.3057 210.239 60.5645 210.143 59.5762 210.143C58.2764 210.143 57.229 210.502 56.4341 211.222C55.6499 211.942 55.2578 212.919 55.2578 214.155V224H50.5688ZM72.209 209.434C71.124 209.434 70.2271 209.783 69.5181 210.481C68.8198 211.179 68.4277 212.103 68.3418 213.252H75.915C75.8613 212.071 75.5015 211.142 74.8354 210.465C74.1802 209.777 73.3047 209.434 72.209 209.434ZM76.0117 218.94H80.3784C80.0239 220.627 79.1216 221.959 77.6714 222.937C76.2319 223.903 74.4272 224.387 72.2573 224.387C69.5503 224.387 67.4395 223.581 65.9248 221.97C64.4102 220.348 63.6528 218.092 63.6528 215.202C63.6528 212.312 64.4155 210.03 65.9409 208.354C67.4663 206.678 69.5503 205.84 72.1929 205.84C74.814 205.84 76.855 206.63 78.3159 208.209C79.7876 209.788 80.5234 211.99 80.5234 214.815V216.25H68.3257V216.491C68.3579 217.812 68.7339 218.86 69.4536 219.633C70.1841 220.396 71.1616 220.777 72.3862 220.777C73.3101 220.777 74.0835 220.622 74.7065 220.31C75.3296 219.988 75.7646 219.531 76.0117 218.94ZM84.4067 224V206.227H89.0957V224H84.4067ZM86.7593 203.746C85.9214 203.746 85.25 203.525 84.7451 203.085C84.2402 202.645 83.9878 202.075 83.9878 201.377C83.9878 200.668 84.2402 200.099 84.7451 199.669C85.25 199.229 85.9214 199.008 86.7593 199.008C87.5972 199.008 88.2686 199.229 88.7734 199.669C89.2783 200.099 89.5308 200.668 89.5308 201.377C89.5308 202.075 89.2729 202.645 88.7573 203.085C88.2524 203.525 87.5864 203.746 86.7593 203.746ZM104.726 218.683C105.445 217.77 105.805 216.529 105.805 214.96C105.805 213.392 105.44 212.151 104.709 211.238C103.99 210.325 103.001 209.869 101.745 209.869C100.488 209.869 99.5049 210.325 98.7959 211.238C98.0977 212.141 97.7485 213.376 97.7485 214.944C97.7485 216.523 98.0977 217.77 98.7959 218.683C99.4941 219.585 100.477 220.036 101.745 220.036C103.012 220.036 104.006 219.585 104.726 218.683ZM101.68 230.735C99.3384 230.735 97.4316 230.257 95.96 229.301C94.499 228.356 93.6934 227.099 93.543 225.531H98.1836C98.3018 226.079 98.6777 226.514 99.3115 226.836C99.9453 227.158 100.767 227.319 101.777 227.319C103.034 227.319 104.011 227.04 104.709 226.481C105.408 225.934 105.757 225.16 105.757 224.161V220.874H105.467C104.457 222.786 102.674 223.742 100.117 223.742C97.9043 223.742 96.1533 222.953 94.8643 221.374C93.5752 219.784 92.9307 217.646 92.9307 214.96C92.9307 212.2 93.5806 210.008 94.8804 208.386C96.1909 206.753 97.9688 205.937 100.214 205.937C101.417 205.937 102.497 206.216 103.453 206.775C104.419 207.333 105.139 208.102 105.612 209.079H105.902V206.227H110.446V223.936C110.446 226.02 109.656 227.674 108.077 228.898C106.498 230.123 104.366 230.735 101.68 230.735ZM115.312 224V199.443H119.92V209.144H120.21C120.629 208.123 121.301 207.328 122.225 206.759C123.159 206.179 124.276 205.889 125.576 205.889C127.499 205.889 128.992 206.469 130.056 207.629C131.13 208.789 131.667 210.433 131.667 212.56V224H126.978V213.671C126.978 212.447 126.699 211.518 126.14 210.884C125.582 210.25 124.771 209.933 123.707 209.933C122.547 209.933 121.639 210.288 120.984 210.997C120.329 211.695 120.001 212.629 120.001 213.8V224H115.312ZM137.564 202.005H142.253V206.404H145.943V210.094H142.253V218.086C142.253 218.86 142.436 219.429 142.801 219.794C143.177 220.16 143.763 220.342 144.558 220.342C145.084 220.342 145.546 220.321 145.943 220.278V223.855C145.224 223.995 144.439 224.064 143.591 224.064C141.432 224.064 139.885 223.688 138.95 222.937C138.026 222.185 137.564 220.938 137.564 219.198V210.094H134.793V206.404H137.564V202.005Z" fill="white"/>
<circle cx="88" cy="88" r="88" fill="white"/>
<path d="M115.084 90.0833H135.917L129.288 75.5H115.084V90.0833Z" fill="#2395CA"/>
<path d="M59.8757 125.5C63.9027 125.5 67.1673 122.236 67.1673 118.209C67.1673 114.182 63.9027 110.917 59.8757 110.917C55.8486 110.917 52.584 114.182 52.584 118.209C52.584 122.236 55.8486 125.5 59.8757 125.5Z" fill="#2395CA"/>
<path d="M116.126 125.5C120.153 125.5 123.417 122.236 123.417 118.209C123.417 114.182 120.153 110.917 116.126 110.917C112.099 110.917 108.834 114.182 108.834 118.209C108.834 122.236 112.099 125.5 116.126 125.5Z" fill="#2395CA"/>
<path d="M110.918 92.1663V73.4163C110.918 72.8638 111.137 72.3339 111.528 71.9432C111.919 71.5525 112.449 71.333 113.001 71.333H127.601L126.425 68.7451C125.929 67.6531 125.129 66.7271 124.12 66.0777C123.112 65.4283 121.938 65.083 120.738 65.083H104.668V115.083H105.112C105.79 112.684 107.233 110.572 109.221 109.068C111.209 107.564 113.633 106.75 116.126 106.75C118.619 106.75 121.044 107.564 123.032 109.068C125.02 110.572 126.463 112.684 127.14 115.083H129.668C131.326 115.083 132.915 114.425 134.087 113.252C135.259 112.08 135.918 110.491 135.918 108.833V94.2497H113.001C112.449 94.2497 111.919 94.0302 111.528 93.6395C111.137 93.2488 110.918 92.7189 110.918 92.1663Z" fill="#2395CA"/>
<path d="M63.0007 96.3337L81.7507 81.7503L63.0007 67.167V75.5003H40.084V88.0003H63.0007V96.3337Z" fill="#2395CA"/>
<path d="M94.2506 50.5H46.334C44.6764 50.5 43.0867 51.1585 41.9146 52.3306C40.7425 53.5027 40.084 55.0924 40.084 56.75V71.3333H58.834V67.1667C58.8338 66.3866 59.0526 65.622 59.4656 64.9602C59.8785 64.2983 60.4689 63.7656 61.1697 63.4228C61.8705 63.08 62.6534 62.9408 63.4294 63.0211C64.2054 63.1014 64.9432 63.3979 65.559 63.8769L84.309 78.4602C84.8098 78.85 85.215 79.3489 85.4937 79.9191C85.7724 80.4892 85.9173 81.1154 85.9173 81.75C85.9173 82.3846 85.7724 83.0108 85.4937 83.581C85.215 84.1511 84.8098 84.65 84.309 85.0398L65.559 99.6231C64.9432 100.102 64.2054 100.399 63.4294 100.479C62.6534 100.559 61.8705 100.42 61.1697 100.077C60.4689 99.7344 59.8785 99.2017 59.4656 98.5399C59.0526 97.878 58.8338 97.1135 58.834 96.3334V92.1667H40.084V108.833C40.084 110.491 40.7425 112.081 41.9146 113.253C43.0867 114.425 44.6764 115.083 46.334 115.083H48.8617C49.5395 112.684 50.982 110.572 52.97 109.068C54.9581 107.564 57.3828 106.75 59.8758 106.75C62.3687 106.75 64.7935 107.564 66.7815 109.068C68.7695 110.572 70.212 112.684 70.8898 115.083H100.501V56.75C100.501 55.0924 99.8422 53.5027 98.6701 52.3306C97.498 51.1585 95.9083 50.5 94.2506 50.5Z" fill="#2395CA"/>
</svg>
