<svg width="148" height="32" viewBox="0 0 148 32" fill="none" xmlns="http://www.w3.org/2000/svg">
<path d="M24.667 16.6667H31.3337L29.2123 12H24.667V16.6667Z" fill="#2395CA"/>
<path d="M7.00033 27.9997C8.28899 27.9997 9.33366 26.955 9.33366 25.6663C9.33366 24.3777 8.28899 23.333 7.00033 23.333C5.71166 23.333 4.66699 24.3777 4.66699 25.6663C4.66699 26.955 5.71166 27.9997 7.00033 27.9997Z" fill="#2395CA"/>
<path d="M25.0003 27.9997C26.289 27.9997 27.3337 26.955 27.3337 25.6663C27.3337 24.3777 26.289 23.333 25.0003 23.333C23.7117 23.333 22.667 24.3777 22.667 25.6663C22.667 26.955 23.7117 27.9997 25.0003 27.9997Z" fill="#2395CA"/>
<path d="M23.334 17.3337V11.3337C23.334 11.1568 23.4042 10.9873 23.5292 10.8623C23.6543 10.7372 23.8238 10.667 24.0007 10.667H28.6726L28.2963 9.83886C28.1374 9.48943 27.8814 9.19311 27.5587 8.9853C27.236 8.7775 26.8603 8.66699 26.4765 8.66699H21.334V24.667H21.4762C21.6931 23.8993 22.1547 23.2234 22.7909 22.7421C23.427 22.2608 24.2029 22.0003 25.0007 22.0003C25.7984 22.0003 26.5743 22.2608 27.2105 22.7421C27.8467 23.2234 28.3083 23.8993 28.5252 24.667H29.334C29.8644 24.667 30.3731 24.4563 30.7482 24.0812C31.1233 23.7061 31.334 23.1974 31.334 22.667V18.0003H24.0007C23.8238 18.0003 23.6543 17.9301 23.5292 17.8051C23.4042 17.68 23.334 17.5105 23.334 17.3337Z" fill="#2395CA"/>
<path d="M8.00033 18.6663L14.0003 13.9997L8.00033 9.33301V11.9997H0.666992V15.9997H8.00033V18.6663Z" fill="#2395CA"/>
<path d="M18.0003 4H2.66699C2.13656 4 1.62785 4.21071 1.25278 4.58579C0.877706 4.96086 0.666992 5.46957 0.666992 6V10.6667H6.66699V9.33333C6.66693 9.0837 6.73695 8.83905 6.86909 8.62725C7.00123 8.41545 7.19018 8.245 7.41442 8.1353C7.63867 8.02561 7.88921 7.98107 8.13752 8.00675C8.38583 8.03244 8.62195 8.12732 8.81899 8.2806L14.819 12.9473C14.9792 13.072 15.1089 13.2317 15.1981 13.4141C15.2873 13.5965 15.3337 13.7969 15.3337 14C15.3337 14.2031 15.2873 14.4035 15.1981 14.5859C15.1089 14.7683 14.9792 14.928 14.819 15.0527L8.81899 19.7194C8.62195 19.8727 8.38583 19.9676 8.13752 19.9933C7.88921 20.0189 7.63867 19.9744 7.41442 19.8647C7.19018 19.755 7.00123 19.5846 6.86909 19.3728C6.73695 19.161 6.66693 18.9163 6.66699 18.6667V17.3333H0.666992V22.6667C0.666992 23.1971 0.877706 23.7058 1.25278 24.0809C1.62785 24.456 2.13656 24.6667 2.66699 24.6667H3.47586C3.69275 23.899 4.15437 23.2231 4.79053 22.7418C5.4267 22.2604 6.20262 22 7.00036 22C7.7981 22 8.57402 22.2604 9.21019 22.7418C9.84635 23.2231 10.308 23.899 10.5249 24.6667H20.0003V6C20.0003 5.46957 19.7896 4.96086 19.4145 4.58579C19.0395 4.21071 18.5308 4 18.0003 4Z" fill="#2395CA"/>
<path d="M50.7357 25.4092H47V7.35151H58.6896V10.5801H50.7357V15.2854H57.9969V18.3763H50.7357V25.4092Z" fill="#2395CA"/>
<path d="M61.7821 25.4092V11.6063H65.2705V13.8087H65.4931C65.6745 13.1079 66.0869 12.5281 66.7301 12.0693C67.3816 11.6104 68.1362 11.381 68.9938 11.381C69.6123 11.381 70.0824 11.4394 70.404 11.5562V14.8724C70.0246 14.7222 69.4556 14.6471 68.6969 14.6471C67.6991 14.6471 66.895 14.9266 66.2848 15.4856C65.6828 16.0445 65.3818 16.8037 65.3818 17.7631V25.4092H61.7821Z" fill="#2395CA"/>
<path d="M78.395 14.0965C77.5621 14.0965 76.8735 14.3677 76.3292 14.9099C75.7932 15.4522 75.4922 16.1697 75.4262 17.0623H81.2401C81.1989 16.1447 80.9226 15.423 80.4113 14.8974C79.9083 14.3635 79.2362 14.0965 78.395 14.0965ZM81.3143 21.4798H84.6666C84.3944 22.7896 83.7017 23.8241 82.5884 24.5832C81.4834 25.3341 80.0979 25.7095 78.4321 25.7095C76.354 25.7095 74.7335 25.0838 73.5707 23.8324C72.4079 22.5727 71.8265 20.8207 71.8265 18.5765C71.8265 16.3324 72.4121 14.5596 73.5831 13.2581C74.7541 11.9566 76.354 11.3059 78.3826 11.3059C80.3948 11.3059 81.9617 11.9191 83.0832 13.1455C84.213 14.3718 84.7779 16.0821 84.7779 18.2762V19.3899H75.4138V19.5776C75.4386 20.6038 75.7272 21.4172 76.2797 22.0179C76.8405 22.6102 77.5909 22.9064 78.5311 22.9064C79.2403 22.9064 79.834 22.7854 80.3123 22.5435C80.7906 22.2932 81.1246 21.9386 81.3143 21.4798Z" fill="#2395CA"/>
<path d="M87.7591 25.4092V11.6063H91.3587V25.4092H87.7591ZM89.5651 9.67911C88.9218 9.67911 88.4064 9.50808 88.0188 9.16603C87.6312 8.82398 87.4374 8.38182 87.4374 7.83955C87.4374 7.28894 87.6312 6.84678 88.0188 6.51307C88.4064 6.17102 88.9218 6 89.5651 6C90.2083 6 90.7237 6.17102 91.1113 6.51307C91.4989 6.84678 91.6927 7.28894 91.6927 7.83955C91.6927 8.38182 91.4948 8.82398 91.099 9.16603C90.7114 9.50808 90.2001 9.67911 89.5651 9.67911Z" fill="#2395CA"/>
<path d="M103.358 21.2795C103.91 20.5704 104.186 19.6068 104.186 18.3888C104.186 17.1708 103.906 16.2072 103.345 15.4981C102.793 14.789 102.034 14.4344 101.069 14.4344C100.104 14.4344 99.3497 14.789 98.8055 15.4981C98.2694 16.1989 98.0014 17.1583 98.0014 18.3763C98.0014 19.6027 98.2694 20.5704 98.8055 21.2795C99.3415 21.9803 100.096 22.3307 101.069 22.3307C102.042 22.3307 102.805 21.9803 103.358 21.2795ZM101.02 30.64C99.2219 30.64 97.7581 30.2687 96.6283 29.5262C95.5068 28.7921 94.8883 27.816 94.7728 26.598H98.3354C98.4261 27.0235 98.7147 27.3613 99.2013 27.6116C99.6878 27.8619 100.319 27.987 101.094 27.987C102.059 27.987 102.809 27.7701 103.345 27.3363C103.881 26.9108 104.149 26.3102 104.149 25.5343V22.9814H103.927C103.151 24.4664 101.782 25.2089 99.8198 25.2089C98.121 25.2089 96.7768 24.5957 95.7872 23.3694C94.7976 22.1347 94.3028 20.4745 94.3028 18.3888C94.3028 16.2448 94.8017 14.5429 95.7996 13.2831C96.8056 12.015 98.1705 11.381 99.894 11.381C100.818 11.381 101.646 11.5979 102.38 12.0317C103.123 12.4655 103.675 13.062 104.038 13.8212H104.261V11.6063H107.749V25.3591C107.749 26.9776 107.143 28.2623 105.931 29.2134C104.718 30.1645 103.081 30.64 101.02 30.64Z" fill="#2395CA"/>
<path d="M111.485 25.4092V6.33788H115.022V13.8713H115.245C115.567 13.0787 116.082 12.4614 116.791 12.0192C117.509 11.5687 118.367 11.3435 119.364 11.3435C120.841 11.3435 121.987 11.794 122.803 12.695C123.628 13.596 124.04 14.8724 124.04 16.5242V25.4092H120.441V17.3877C120.441 16.4366 120.226 15.715 119.797 15.2228C119.368 14.7306 118.746 14.4845 117.929 14.4845C117.039 14.4845 116.342 14.7598 115.839 15.3104C115.336 15.8527 115.084 16.5785 115.084 17.4878V25.4092H111.485Z" fill="#2395CA"/>
<path d="M128.568 8.3276H132.167V11.7439H135V14.6096H132.167V20.8165C132.167 21.4172 132.307 21.8594 132.588 22.143C132.876 22.4267 133.326 22.5685 133.936 22.5685C134.34 22.5685 134.695 22.5518 135 22.5184V25.2965C134.447 25.405 133.845 25.4592 133.194 25.4592C131.536 25.4592 130.349 25.1672 129.631 24.5832C128.922 23.9992 128.568 23.0315 128.568 21.68V14.6096H126.44V11.7439H128.568V8.3276Z" fill="#2395CA"/>
</svg>
