<svg width="47" height="35" viewBox="0 0 47 35" fill="none" xmlns="http://www.w3.org/2000/svg">
<g clip-path="url(#clip0_1586_7963)">
<path d="M17.2334 24.2518L19.6207 10.8232H23.3509L21.0382 24.2518H17.2334Z" fill="#3C58BF"/>
<path d="M17.2334 24.2518L20.2921 10.8232H23.3509L21.0382 24.2518H17.2334Z" fill="#293688"/>
<path d="M34.5412 10.9718C33.7952 10.6734 32.6016 10.375 31.1095 10.375C27.3793 10.375 24.6936 12.2401 24.6936 14.9258C24.6936 16.9401 26.5587 17.9845 28.0508 18.656C29.5428 19.3274 29.9904 19.775 29.9904 20.3718C29.9904 21.2671 28.7968 21.7147 27.7524 21.7147C26.2603 21.7147 25.4397 21.4909 24.1714 20.9687L23.6492 20.7448L23.127 23.8036C24.0222 24.1766 25.6635 24.5496 27.3793 24.5496C31.3333 24.5496 33.9444 22.6845 33.9444 19.8496C33.9444 18.2829 32.9746 17.0893 30.7365 16.1194C29.3936 15.448 28.573 15.075 28.573 14.4036C28.573 13.8067 29.2444 13.2099 30.7365 13.2099C32.0047 13.2099 32.9 13.4337 33.5714 13.7321L33.9444 13.8813L34.5412 10.9718Z" fill="#3C58BF"/>
<path d="M34.5412 10.9718C33.7952 10.6734 32.6016 10.375 31.1095 10.375C27.3793 10.375 25.365 12.2401 25.365 14.9258C25.365 16.9401 26.5587 17.9845 28.0508 18.656C29.5428 19.3274 29.9904 19.775 29.9904 20.3718C29.9904 21.2671 28.7968 21.7147 27.7524 21.7147C26.2603 21.7147 25.4397 21.4909 24.1714 20.9687L23.6492 20.7448L23.127 23.8036C24.0222 24.1766 25.6635 24.5496 27.3793 24.5496C31.3333 24.5496 33.9444 22.6845 33.9444 19.8496C33.9444 18.2829 32.9746 17.0893 30.7365 16.1194C29.3936 15.448 28.573 15.075 28.573 14.4036C28.573 13.8067 29.2444 13.2099 30.7365 13.2099C32.0047 13.2099 32.9 13.4337 33.5714 13.7321L33.9444 13.8813L34.5412 10.9718Z" fill="#293688"/>
<path d="M40.9568 10.8232C40.0616 10.8232 39.3901 10.8978 39.0171 11.7931L33.4219 24.2518H37.4504L38.1965 22.0137H42.9711L43.4187 24.2518H46.9997L43.8663 10.8232H40.9568ZM39.2409 19.7756C39.4647 19.1042 40.733 15.8217 40.733 15.8217C40.733 15.8217 41.0314 15.001 41.2552 14.4788L41.479 15.7471C41.479 15.7471 42.225 19.1042 42.3743 19.8502H39.2409V19.7756Z" fill="#3C58BF"/>
<path d="M41.852 10.8232C40.9568 10.8232 40.2854 10.8978 39.9124 11.7931L33.4219 24.2518H37.4504L38.1965 22.0137H42.9711L43.4187 24.2518H46.9997L43.8663 10.8232H41.852ZM39.2409 19.7756C39.5393 19.0296 40.733 15.8217 40.733 15.8217C40.733 15.8217 41.0314 15.001 41.2552 14.4788L41.479 15.7471C41.479 15.7471 42.225 19.1042 42.3743 19.8502H39.2409V19.7756Z" fill="#293688"/>
<path d="M10.3697 20.2229L9.99664 18.2832C9.32521 16.0451 7.16172 13.5832 4.77441 12.3895L8.13156 24.326H12.1601L18.203 10.8975H14.1744L10.3697 20.2229Z" fill="#3C58BF"/>
<path d="M10.3697 20.2229L9.99664 18.2832C9.32521 16.0451 7.16172 13.5832 4.77441 12.3895L8.13156 24.326H12.1601L18.203 10.8975H14.9204L10.3697 20.2229Z" fill="#293688"/>
<path d="M0 10.8232L0.671429 10.9724C5.44603 12.0915 8.72857 14.9264 9.99682 18.2836L8.65397 11.9423C8.43016 11.0471 7.75873 10.8232 6.9381 10.8232H0Z" fill="#FFBC00"/>
<path d="M0 10.8232C4.7746 11.9423 8.72857 14.8518 9.99682 18.209L8.72857 12.9121C8.50476 12.0169 7.75873 11.4947 6.9381 11.4947L0 10.8232Z" fill="#F7981D"/>
<path d="M0 10.8232C4.7746 11.9423 8.72857 14.8518 9.99682 18.209L9.10159 15.2994C8.87778 14.4042 8.57936 13.509 7.53492 13.1359L0 10.8232Z" fill="#ED7C00"/>
<path d="M14.1004 19.7757L11.5639 17.2392L10.3702 20.0742L10.0718 18.2091C9.4004 15.971 7.23691 13.5091 4.84961 12.3154L8.20675 24.2519H12.2353L14.1004 19.7757Z" fill="#051244"/>
<path d="M21.0382 24.2523L17.8302 20.9697L17.2334 24.2523H21.0382Z" fill="#051244"/>
<path d="M29.6174 19.627C29.9158 19.9254 30.065 20.1492 29.9904 20.4476C29.9904 21.3428 28.7968 21.7904 27.7524 21.7904C26.2603 21.7904 25.4397 21.5666 24.1714 21.0444L23.6492 20.8206L23.127 23.8793C24.0222 24.2524 25.6635 24.6254 27.3793 24.6254C29.7666 24.6254 31.7063 23.9539 32.8254 22.7603L29.6174 19.627Z" fill="#051244"/>
<path d="M33.9453 24.2515H37.4517L38.1977 22.0134H42.9723L43.4199 24.2515H47.0009L45.7326 18.8055L41.2564 14.4785L41.4802 15.6722C41.4802 15.6722 42.2263 19.0293 42.3755 19.7753H39.2421C39.5405 19.0293 40.7342 15.8214 40.7342 15.8214C40.7342 15.8214 41.0326 15.0007 41.2564 14.4785" fill="#051244"/>
</g>
<defs>
<clipPath id="clip0_1586_7963">
<rect width="47" height="35" fill="white"/>
</clipPath>
</defs>
</svg>
