<svg width="24" height="24" viewBox="0 0 24 24" fill="none" xmlns="http://www.w3.org/2000/svg">
<path d="M14.4556 9.46992L9.42157 14.5299C8.7749 13.8799 8.37695 12.9899 8.37695 11.9999C8.37695 10.0199 9.96875 8.41992 11.9386 8.41992C12.9235 8.41992 13.809 8.81992 14.4556 9.46992Z" stroke="#7A7A7A" stroke-width="1.5" stroke-linecap="round" stroke-linejoin="round"/>
<path d="M17.7281 5.77047C15.9871 4.45047 13.9973 3.73047 11.9379 3.73047C8.42605 3.73047 5.15292 5.81047 2.87466 9.41047C1.97928 10.8205 1.97928 13.1905 2.87466 14.6005C3.66061 15.8405 4.57589 16.9105 5.57077 17.7705" stroke="#7A7A7A" stroke-width="1.5" stroke-linecap="round" stroke-linejoin="round"/>
<path d="M8.37695 19.5297C9.51111 20.0097 10.7149 20.2697 11.9386 20.2697C15.4505 20.2697 18.7236 18.1897 21.0019 14.5897C21.8973 13.1797 21.8973 10.8097 21.0019 9.39969C20.6736 8.87969 20.3154 8.38969 19.9473 7.92969" stroke="#7A7A7A" stroke-width="1.5" stroke-linecap="round" stroke-linejoin="round"/>
<path d="M15.4305 12.7002C15.1719 14.1102 14.0278 15.2602 12.625 15.5202" stroke="#7A7A7A" stroke-width="1.5" stroke-linecap="round" stroke-linejoin="round"/>
<path d="M9.42193 14.5303L1.99023 22.0003" stroke="#7A7A7A" stroke-width="1.5" stroke-linecap="round" stroke-linejoin="round"/>
<path d="M21.8868 2L14.4551 9.47" stroke="#7A7A7A" stroke-width="1.5" stroke-linecap="round" stroke-linejoin="round"/>
</svg>
