<svg width="24" height="24" viewBox="0 0 24 24" fill="none" xmlns="http://www.w3.org/2000/svg">
<path d="M12.0001 13.0496L6.7501 18.2996C6.6001 18.4496 6.4251 18.5246 6.2251 18.5246C6.0251 18.5246 5.8501 18.4496 5.7001 18.2996C5.5501 18.1496 5.4751 17.9746 5.4751 17.7746C5.4751 17.5746 5.5501 17.3996 5.7001 17.2496L10.9501 11.9996L5.7001 6.74961C5.5501 6.59961 5.4751 6.42461 5.4751 6.22461C5.4751 6.02461 5.5501 5.84961 5.7001 5.69961C5.8501 5.54961 6.0251 5.47461 6.2251 5.47461C6.4251 5.47461 6.6001 5.54961 6.7501 5.69961L12.0001 10.9496L17.2501 5.69961C17.4001 5.54961 17.5751 5.47461 17.7751 5.47461C17.9751 5.47461 18.1501 5.54961 18.3001 5.69961C18.4501 5.84961 18.5251 6.02461 18.5251 6.22461C18.5251 6.42461 18.4501 6.59961 18.3001 6.74961L13.0501 11.9996L18.3001 17.2496C18.4501 17.3996 18.5251 17.5746 18.5251 17.7746C18.5251 17.9746 18.4501 18.1496 18.3001 18.2996C18.1501 18.4496 17.9751 18.5246 17.7751 18.5246C17.5751 18.5246 17.4001 18.4496 17.2501 18.2996L12.0001 13.0496Z" fill="#7A7A7A"/>
</svg>
